Patient4_TMGait_0pt3_01_left_29_EMG.mot
version=1
nRows=23
nColumns=33
inDegrees=no
endheader
time	1LAddLong	2LGlutMax	3LGlutMed	4LIliopsoas	5LSemiMemb	6LBicFemLong	7LRecFem	8LVastMed	9LVastLat	10LGasMed	11LTibAnt	12lTibPost	13LPeroneusLong	14LSol	15LExtDigLong	16LFlexDigLong	17RAddLong	18RGlutMax	19RGlutMed	20RIliopsoas	21RSemiMemb	22RBicFemLong	23RRecFem	24RVastMed	25RVastLat	26RGasMed	27RTibAnt	28RTibPost	29RPeroneusLong	30RSol	31RExtDigLong	32RFlexDigLong
56.83	-0.031738	-0.045624	0.017395	0.01297	-0.022736	-0.041809	-0.001068	0.007324	-0.011902	-0.009308	0.06546	-0.022736	0.002747	-0.079651	-0.049438	0.004883	-0.055389	0.29877	0.94925	0.013123	0.028687	0.26901	-0.029602	-0.32532	-1.1887	-0.015564	-0.014191	-0.008392	1.4662	-0.05722	-0.003815	-0.004578
56.831	0.068207	-0.025482	0.020294	0.026855	-0.01236	-0.060577	-0.014191	0.001526	0.003662	-0.00885	0.2269	-0.011749	-0.046387	-0.10925	0.6369	0.028839	-0.034332	0.26047	-0.16312	0.058136	-0.052032	0.17471	0.4776	0.29602	-1.152	0.003204	0.022125	-0.008087	0.26398	-0.048523	-0.010071	-0.001526
56.832	0.034485	-0.051575	0.000153	0.026703	-0.004578	-0.076752	-0.03006	0.005035	-0.020447	-0.019836	0.076752	-0.00885	-0.008087	-0.039215	0.55542	0.012665	0.003815	0.17029	-1.1	0.074158	-0.11795	0.021515	0.56137	0.64484	-0.93689	-0.003052	0.02121	-0.010986	-1.2849	-0.05661	-0.00824	-0.007629
56.833	0.007324	-0.066986	-0.018311	-0.010223	-0.015259	-0.069885	-0.020294	-0.002136	-0.003967	-0.05661	0.003662	-0.01236	0.046692	0.014648	-0.2504	0.032959	0.014343	0.12344	-0.93277	0.14755	-0.00351	-0.083618	0.28091	0.61478	-0.47516	0.000305	0.071564	-0.008545	-2.3524	-0.025635	-0.007629	-0.010681
56.834	0.004578	-0.050964	-0.019226	-0.031433	0.016174	-0.069122	-0.024567	0.006104	-0.00885	-0.066528	-0.17242	-0.01709	0.074768	0.009308	-0.40726	0.016632	-0.011902	0.14481	0.011292	0.08606	0.027008	-0.2179	-0.25681	0.63477	-0.054016	0.004272	-0.009918	-0.00885	-1.714	0.026398	-0.011444	-0.00946
56.835	0.000153	-0.071564	-0.029907	-0.028076	-0.013275	-0.066681	-0.022736	-0.002747	-0.007019	-0.022125	-0.25513	-0.00885	0.063934	-0.10483	-0.40832	-0.000458	-0.002594	0.16571	-0.29388	-0.023804	0	-0.21194	-0.39078	0.17151	0.27145	-0.006256	-0.17014	-0.002289	1.0774	0.14648	-0.001678	-0.012512
56.836	-0.007935	-0.062408	-0.033112	-0.012207	0.015411	-0.077667	-0.009918	-0.001678	-0.005035	0.001831	-0.15305	-0.018616	0.042877	-0.11963	-0.18036	0.011597	0.020905	0.19928	0.086212	-0.16342	-0.036621	-0.16159	-0.33081	-0.76523	0.2562	-0.005493	-0.13718	-0.007935	1.4772	0.042419	-0.00412	-0.011139
56.837	-0.006561	-0.057373	-0.037994	-0.005035	0.007935	-0.073853	-0.018158	0.003204	-0.010681	-0.014648	0.03891	-0.011597	0.010223	-0.055389	-0.078583	0.016632	0.042725	0.25742	0.3746	-0.12207	-0.051575	-0.13184	-0.1326	-0.92972	0.52139	-0.002594	-0.23361	-0.000763	0.70526	-0.10132	-0.005493	-0.005646
56.838	-0.002441	-0.0737	0.001068	-0.013885	0.010071	-0.030975	-0.011292	0.000305	-0.016479	-0.003662	0.059814	-0.012512	-0.004425	-0.048828	0.20554	0.005035	0.024872	0.22003	0.062561	0.021362	-0.043182	-0.071716	-0.17777	-0.79147	0.15396	-0.002747	-0.21744	-0.009918	0.16602	0.061188	-0.010834	-0.006104
56.839	-0.005646	-0.043335	-0.001221	0.011292	0.016632	-0.016022	-0.007172	0	-0.028534	0.011139	-0.006714	-0.01709	0.001984	0.00824	0.50598	0.002594	0.010681	0.13992	-0.13504	0.043182	-0.033569	-0.01297	0.009766	-0.46387	-0.012207	-0.007782	-0.11307	-0.007172	0.11948	0.1004	-0.004578	-0.013885
56.84	-0.007172	-0.068817	-0.034637	0.029449	-0.005341	-0.02655	-0.023041	0.005341	-0.021057	-0.012665	-0.20218	-0.001831	0.033264	0.026245	-0.061951	-0.001221	0.007935	0.10819	0.036011	-0.017853	-0.019379	0.034637	0.010529	-0.002136	0.14236	-0.003357	-0.049133	-0.012512	0.13275	0.014648	-0.005035	-0.007019
56.841	0.000153	-0.053406	-0.03479	0.031891	0.01236	-0.026855	-0.010529	0.001068	-0.02243	0.001068	-0.058594	-0.010834	0.021515	-0.07309	-0.15839	0	0.006866	0.065613	-0.34256	0.001373	-0.003967	0.041809	0.16815	0.21347	-0.037842	-0.008545	-0.093994	-0.01236	0.017853	-0.057068	-0.002899	-0.004272
56.842	-0.010529	-0.04715	0.005646	-0.010376	-0.001373	-0.009155	-0.031738	0.006256	-0.03006	-0.017242	0.10895	-0.005646	0.004578	-0.001526	-0.012512	0.000305	-0.003967	0.037842	-0.85754	0.002594	-0.038757	0.072021	0.22873	-0.003204	-0.29709	-0.00061	-0.14542	-0.008087	0.001221	-0.072937	-0.002899	-0.010681
56.843	-0.018311	-0.043793	0.018311	0.003815	-0.0177	0.001373	-0.029602	0.005493	-0.038757	-0.032349	0.16037	-0.008545	0.057678	-0.008087	-0.12863	0.006104	-0.024109	-0.005035	-0.95017	0.013733	-0.037842	0.13519	0.11231	-0.27298	-0.099487	-0.000305	-0.04837	-0.003815	0.074158	-0.073853	-0.003967	0.000458
56.844	-0.018921	-0.00824	0.014954	0.021973	-0.000916	0.019073	-0.013885	0.003052	-0.032043	-0.013885	0.077972	-0.010071	0.018768	-0.085297	-0.27725	0.003662	0.004883	0.003204	0.11856	-0.074005	-0.019531	-0.028076	-0.084991	-0.34454	0.54825	0.00412	0.13672	-0.003662	0.35233	-0.030975	-0.009613	-0.000305
56.845	-0.025787	-0.034485	0.026093	0.001373	-0.018616	0.023041	-0.011444	-0.00351	-0.041351	-0.012054	-0.1796	-0.005951	0.011749	-0.074158	-0.15869	0.005646	0.010529	-0.009766	0.62653	-0.13412	0.006714	-0.092468	-0.32303	-0.10727	1.0361	-0.001831	0.10727	-0.002747	0.18204	-0.003204	-0.001068	-0.004272
56.846	-0.007935	-0.027313	0.023499	-0.00885	0.000305	0.015411	-0.016785	0.001831	-0.034943	-0.018616	-0.22385	-0.008392	0.020905	-0.050049	-0.028992	-0.011444	0.031281	-0.050964	0.018311	-0.096893	-0.010529	-0.085297	-0.31158	0.054169	1.0408	-0.001678	-0.10025	-0.002136	0.4303	0.001221	-0.00412	-0.001678
56.847	-0.008545	-0.027924	0.033112	0.002747	-0.008392	0.015717	-0.014191	0.000916	-0.0354	-0.018921	-0.15518	-0.00885	0.019226	-0.026855	-0.015869	-0.001984	0.064392	0.054321	-0.13931	-0.070496	-0.020752	-0.039978	-0.39124	0.095978	0.56473	0.001984	-0.087891	-0.001831	-0.25223	-0.02182	0.003967	-0.000153
56.848	-0.003967	-0.033722	-0.012512	0.013428	-0.00946	0.023499	-0.016327	0.010071	-0.035095	-0.016479	-0.13077	-0.005188	0.008545	0.002136	0.72861	0.002289	0.053101	0.14282	0.12299	0.083618	-0.015106	-0.068817	-0.31937	0.32181	0.29862	-0.002594	0.05661	-0.002289	0.4982	0.02121	-0.002899	-0.009918
56.849	-0.00061	-0.041809	0.029602	0.006409	-0.003357	0.01236	0.003357	0.001526	-0.041504	-0.010376	0.065155	-0.00824	-0.030365	0.003967	-0.12421	0.014038	0.036621	0.20309	0.55695	0.14542	-0.012817	-0.088806	-0.36514	0.8905	0.21042	-0.002899	0.062408	-0.006409	1.1234	0.032806	-0.003662	-0.006561
56.85	-0.003815	-0.030823	0.039978	0.00885	-0.01358	-0.002594	-0.005951	-0.003052	-0.037079	-0.018921	0.25406	-0.005798	-0.029449	0.087128	0.068817	0.015411	0.026245	0.33966	0.70511	0.10223	-0.036316	-0.20401	-0.672	0.70038	-0.084839	0.000305	0.034943	-0.008698	1.0022	0.037689	-0.001068	-0.014038
56.851	0.009308	-0.023956	-0.075989	0.006409	0	-0.019836	-0.012054	0.001678	-0.026703	-0.031433	0.17609	-0.006256	-0.007324	-0.003204	-0.010376	0.015869	0.008698	0.30487	0.53146	0.1648	-0.019989	-0.22156	-0.44495	0.56564	-0.41672	0.002747	-0.087891	-0.003052	-0.45212	-0.008087	-0.007019	-0.011597
56.852	0.005035	-0.045929	-0.057373	-0.006409	-0.002899	-0.033875	-0.008698	-0.00473	-0.012817	-0.019836	0.010529	-0.00885	0.018005	-0.10681	0.005341	0.00885	-0.024261	0.29098	0.17883	0.14603	0.00824	-0.14801	-0.10269	0.62134	-0.24445	0.004272	-0.06485	-0.004883	-1.4999	-0.11856	-0.004578	-0.01297
